<svg width="440" height="512" viewBox="0 0 440 512" fill="none" xmlns="http://www.w3.org/2000/svg">
<path d="M203.5 1.09998C186.9 3.49998 163.9 13 151 22.9C142.6 29.2 129.6 42.8 124.1 50.8C118.2 59.5 111.5 73.9 108.6 84.1C105.2 96.1 104 105.9 104 122.1V136H67.1C38.3 136 30 136.3 29.2 137.3C28.5 138 22.3 215.3 14 323.9C3.09997 467.3 0.199972 509.5 1.09997 510.6C2.79997 512.7 437.2 512.7 438.9 510.6C439.8 509.5 436.9 467.3 426 323.9C417.7 215.3 411.5 138 410.8 137.3C410 136.3 401.7 136 372.9 136H336V122.7C336 106.5 334.7 95.8 331.4 84.3C328.5 73.9 321.8 59.5 315.9 50.8C309.8 41.9 295.2 27 286.5 21.1C262.5 4.49998 231.7 -3.00002 203.5 1.09998ZM233 33.1C251.2 36 265.5 43.5 279 57C297.3 75.3 304 93 304 122.7V136H220H136V122.7C136 107.1 137.1 99.4 140.9 88.3C153.9 50.4 193.5 26.7 233 33.1ZM104.2 192.9C104.5 215.9 104.7 216.4 111.4 221.4C115.3 224.3 124.7 224.3 128.6 221.4C135.3 216.4 135.5 215.9 135.8 192.9C136 176.7 136.4 172 137.4 172C139.4 172 149.2 179.4 151.6 182.7C161 195.5 162.5 211.5 155.6 225.6C151.3 234.2 145.3 240 136.2 244.3C130.1 247.2 128.6 247.5 120 247.5C111.4 247.5 109.9 247.2 104 244.4C94.5 239.8 88.7 234.3 84.3 225.2C80.7 217.9 80.5 217.2 80.5 207.6C80.5 198.7 80.8 196.8 83.2 191.8C84.7 188.6 87.1 184.5 88.5 182.6C91.2 179 100.5 172.1 102.7 172C103.6 172 104 177.5 104.2 192.9ZM304.2 192.9C304.5 215.9 304.7 216.4 311.4 221.4C315.3 224.3 324.7 224.3 328.6 221.4C335.3 216.4 335.5 215.9 335.8 192.9C336 176.7 336.4 172 337.4 172C339.4 172 349.2 179.4 351.6 182.7C361 195.5 362.5 211.5 355.6 225.6C351.3 234.2 345.3 240 336.2 244.3C330.1 247.2 328.6 247.5 320 247.5C311.4 247.5 309.9 247.2 304 244.4C294.5 239.8 288.7 234.3 284.3 225.2C280.7 217.9 280.5 217.2 280.5 207.6C280.5 198.7 280.8 196.8 283.2 191.8C284.7 188.6 287.1 184.5 288.5 182.6C291.2 179 300.5 172.1 302.7 172C303.6 172 304 177.5 304.2 192.9Z" fill="#F61130"/>
</svg>
